<?xml version="1.0" encoding="UTF-8" standalone="no"?>
<!-- Created with Inkscape (http://www.inkscape.org/) -->

<svg
   xmlns:dc="http://purl.org/dc/elements/1.1/"
   xmlns:cc="http://creativecommons.org/ns#"
   xmlns:rdf="http://www.w3.org/1999/02/22-rdf-syntax-ns#"
   xmlns:svg="http://www.w3.org/2000/svg"
   xmlns="http://www.w3.org/2000/svg"
   xmlns:xlink="http://www.w3.org/1999/xlink"
   xmlns:sodipodi="http://sodipodi.sourceforge.net/DTD/sodipodi-0.dtd"
   xmlns:inkscape="http://www.inkscape.org/namespaces/inkscape"
   version="1.1"
   id="svg20"
   width="764"
   height="122"
   viewBox="0 0 764 122"
   sodipodi:docname="clouds_center.svg"
   inkscape:version="0.92.1 r15371">
  <metadata
     id="metadata26">
    <rdf:RDF>
      <cc:Work
         rdf:about="">
        <dc:format>image/svg+xml</dc:format>
        <dc:type
           rdf:resource="http://purl.org/dc/dcmitype/StillImage" />
        <dc:title></dc:title>
      </cc:Work>
    </rdf:RDF>
  </metadata>
  <defs
     id="defs24" />
  <sodipodi:namedview
     pagecolor="#ffffff"
     bordercolor="#666666"
     borderopacity="1"
     objecttolerance="10"
     gridtolerance="10"
     guidetolerance="10"
     inkscape:pageopacity="0"
     inkscape:pageshadow="2"
     inkscape:window-width="1920"
     inkscape:window-height="1017"
     id="namedview22"
     showgrid="false"
     inkscape:zoom="1.4216178"
     inkscape:cx="300.75358"
     inkscape:cy="-16.291025"
     inkscape:window-x="-8"
     inkscape:window-y="-8"
     inkscape:window-maximized="1"
     inkscape:current-layer="layer3" />
  <image
     sodipodi:absref="D:\我的文档\Desktop\clouds_center.png"
     xlink:href="clouds_center.png"
     y="0"
     x="0"
     id="image28"
     preserveAspectRatio="none"
     height="122"
     width="764" />
  <g
     inkscape:groupmode="layer"
     id="layer1"
     inkscape:label="Layer 1"
     style="display:inline">
    <path
       style="fill:#00b7ee;fill-opacity:1"
       d="m 424.05469,36.884766 a 53.46022,53.46022 0 0 0 -40.88867,19.021484 53.46022,53.46022 0 0 0 -1.3379,1.759766 62.604729,62.604729 0 0 0 -5.38671,-0.271485 62.604729,62.604729 0 0 0 -61.35547,50.167969 62.604729,62.604729 0 0 0 -0.5293,3.50586 15.827039,15.827039 0 0 0 -10.32617,-3.83984 15.827039,15.827039 0 0 0 -8.06445,2.22851 21.102718,21.102718 0 0 0 -18.31446,-10.669921 21.102718,21.102718 0 0 0 -19.46875,12.972661 21.806143,21.806143 0 0 0 -6.55664,-1.01368 21.806143,21.806143 0 0 0 -19.09375,11.32227 H 522.8418 a 43.612286,43.612286 0 0 0 -43.10742,-37.34961 43.612286,43.612286 0 0 0 -2.56641,0.0918 53.46022,53.46022 0 0 0 -53.11328,-47.925781 z m -294.97657,1.517578 a 50.294811,50.294811 0 0 0 -50.294917,50.294922 50.294811,50.294811 0 0 0 2.367188,15.060544 15.475327,15.827039 0 0 0 -5.869141,1.67578 15.475327,15.827039 0 0 0 -0.984375,0.57813 16.530462,16.178751 0 0 0 -0.185547,-0.20703 16.530462,16.178751 0 0 0 -11.857422,-4.90821 16.530462,16.178751 0 0 0 -16.380859,14.12891 20.047583,16.178751 0 0 0 -14.974609,7.04297 H 223.95312 a 42.557148,42.557148 0 0 0 1.14258,-9.56445 42.557148,42.557148 0 0 0 -42.55664,-42.556644 42.557148,42.557148 0 0 0 -6.58008,0.539062 50.294811,50.294811 0 0 0 -0.004,-0.01367 50.294811,50.294811 0 0 0 -46.87696,-32.070312 z m 502.59571,44.205078 a 64.011581,64.011581 0 0 0 -44.89649,18.416018 26.73011,26.73011 0 0 0 -10.67382,-2.236331 26.73011,26.73011 0 0 0 -22.71875,12.708981 16.882174,16.882174 0 0 0 -0.25,-0.12109 16.882174,16.882174 0 0 0 -6.57422,-1.33398 16.882174,16.882174 0 0 0 -16.1543,12.02734 h 160.36328 a 64.011581,64.011581 0 0 0 -59.0957,-39.460938 z"
       id="path33"
       inkscape:connector-curvature="0" />
  </g>
  <g
     inkscape:groupmode="layer"
     id="layer2"
     inkscape:label="Layer 2"
     style="display:inline">
    <path
       style="fill:#e9f4ff;fill-opacity:1;stroke-width:1.06177616"
       d="m 506.70703,31.369141 a 53.108509,53.108509 0 0 0 -53.10937,53.107419 53.108509,53.108509 0 0 0 15.54882,37.50196 h 75.11524 a 53.108509,53.108509 0 0 0 1.875,-2.01172 28.488668,28.488668 0 0 0 0.81445,2.01172 h 212.96485 a 96.720795,96.720795 0 0 0 -87.0918,-54.84571 96.720795,96.720795 0 0 0 -73.14063,33.51563 28.488668,28.488668 0 0 0 -26.74414,-18.74414 28.488668,28.488668 0 0 0 -13.1582,3.23437 53.108509,53.108509 0 0 0 0.0332,-0.66211 53.108509,53.108509 0 0 0 -53.10742,-53.107419 z m -300.47265,0.441406 a 53.811932,53.811932 0 0 0 -49.99415,34.033203 74.91465,74.91465 0 0 0 -47.45117,-17 74.91465,74.91465 0 0 0 -73.541013,60.82031 31.302364,31.302364 0 0 0 -10.166016,-1.73242 31.302364,31.302364 0 0 0 -26.0937498,14.04688 H 300.86328 a 37.633179,37.633179 0 0 0 0.20313,-3.84766 37.633179,37.633179 0 0 0 -37.63477,-37.63281 37.633179,37.633179 0 0 0 -3.6543,0.21484 53.811932,53.811932 0 0 0 -53.54296,-48.902343 z"
       id="path191"
       inkscape:connector-curvature="0" />
  </g>
  <g
     inkscape:groupmode="layer"
     id="layer3"
     inkscape:label="Layer 3">
    <path
       style="fill:#c9def3;fill-opacity:1"
       d="M 551.81445 1.0117188 A 65.418427 65.418427 0 0 0 504.375 21.501953 A 50.646523 50.646523 0 0 0 492.39648 20.003906 A 50.646523 50.646523 0 0 0 441.75 70.650391 A 50.646523 50.646523 0 0 0 492.39648 121.29688 A 50.646523 50.646523 0 0 0 511.22266 117.64258 A 65.418427 65.418427 0 0 0 517.45117 122 L 586.24805 122 A 65.418427 65.418427 0 0 0 599.79297 110.7793 A 59.791035 59.791035 0 0 0 607.80859 122 L 696.33594 122 A 59.791035 59.791035 0 0 0 711.86523 81.904297 A 59.791035 59.791035 0 0 0 652.07422 22.113281 A 59.791035 59.791035 0 0 0 610.92773 38.566406 A 65.418427 65.418427 0 0 0 551.81445 1.0117188 z M 246.19922 1.7148438 A 54.867065 54.867065 0 0 0 195.14062 36.642578 A 46.777691 46.777691 0 0 0 167.76562 27.740234 A 46.777691 46.777691 0 0 0 120.98828 74.519531 A 46.777691 46.777691 0 0 0 167.76562 121.29688 A 46.777691 46.777691 0 0 0 208.91602 96.744141 A 54.867065 54.867065 0 0 0 246.19922 111.44922 A 54.867065 54.867065 0 0 0 268.71484 106.54102 A 39.040028 39.040028 0 0 0 281.08984 122 L 327.60156 122 A 39.040028 39.040028 0 0 0 343.38086 90.697266 A 39.040028 39.040028 0 0 0 304.3418 51.658203 A 39.040028 39.040028 0 0 0 300.82422 51.847656 A 54.867065 54.867065 0 0 0 246.19922 1.7148438 z "
       id="path231" />
  </g>
</svg>
